# xmcd
#
# Track frame offsets: 
#        150
#        21618
#        37763
#        54300
#        74757
#        89258
#        106098
#        123067
#        138853
#        156034
#        171621
#
# Disc length: 2471 seconds
#
# Revision: 0
# Processed by: cddbd v1.5.2PL0 Copyright (c) Steve Scherf et al.
# Submitted via: ExactAudioCopy v0.95b3
#
DISCID=8e09a50b
DTITLE=Angelo Kelly - Lost Sons
DYEAR=2008
DGENRE=Pop
TTITLE0=Smile For The Picture
TTITLE1=Alone
TTITLE2=Out There
TTITLE3=Reconsider
TTITLE4=Stay Like A Child
TTITLE5=Nothing
TTITLE6=Lost Sons
TTITLE7=Open Your Eyes
TTITLE8=Dance
TTITLE9=Waves Come And Go
TTITLE10=Black Is The Colour
EXTD=
EXTT0=
EXTT1=
EXTT2=
EXTT3=
EXTT4=
EXTT5=
EXTT6=
EXTT7=
EXTT8=
EXTT9=
EXTT10=
PLAYORDER=
